<svg width="54" height="33" viewBox="0 0 54 33" fill="none" xmlns="http://www.w3.org/2000/svg">
<g clip-path="url(#clip0_1_734)" filter="url(#filter0_b_1_734)">
<path d="M46.6058 14.5735C46.8406 17.4287 49.19 19.609 51.9741 19.6371L52.2233 22.6671C52.457 25.5087 50.3785 27.9852 47.597 28.2139L7.82917 31.4841C5.04767 31.7129 2.5926 29.6092 2.35892 26.7676L2.10976 23.7375C4.85194 23.255 6.81355 20.7202 6.57876 17.865C6.34397 15.0098 3.99463 12.8296 1.21045 12.8015L0.961286 9.77143C0.727614 6.92984 2.80605 4.45337 5.58755 4.22464L45.3554 0.954427C48.1369 0.725697 50.592 2.82936 50.8257 5.67096L51.0748 8.701C48.3326 9.18353 46.371 11.7183 46.6058 14.5735Z" fill="white" fill-opacity="0.2" stroke="white"/>
<rect x="12" y="9.00014" width="27" height="16" rx="4" transform="rotate(-4.70101 12 9.00014)" fill="white" fill-opacity="0.2"/>
<path d="M22.7073 19.1568C22.5584 19.169 22.4338 19.1177 22.3334 19.0029L20.2923 16.7305L20.9569 15.9294L23.0696 18.2922C23.1523 18.3871 23.1985 18.493 23.2081 18.6099C23.2204 18.7587 23.1746 18.8856 23.0708 18.9904C22.9667 19.09 22.8455 19.1454 22.7073 19.1568ZM22.3407 13.5279C22.4683 13.5174 22.5763 13.562 22.6648 13.6618C22.7581 13.7558 22.8092 13.8559 22.8179 13.9622C22.8271 14.0739 22.7878 14.1814 22.7 14.285L19.6222 17.7569L19.4885 16.62L21.9651 13.7434C22.0773 13.6111 22.2025 13.5393 22.3407 13.5279ZM19.3586 19.4322C19.2097 19.4444 19.0864 19.4091 18.9886 19.3261C18.8904 19.2379 18.8356 19.1246 18.8242 18.9864L18.4453 14.378C18.4339 14.2398 18.4723 14.1216 18.5606 14.0234C18.6484 13.9198 18.7667 13.8619 18.9156 13.8497C19.0644 13.8374 19.1853 13.8757 19.2782 13.9644C19.376 14.0473 19.4305 14.1578 19.4419 14.296L19.8209 18.9045C19.8322 19.0427 19.7967 19.1633 19.7142 19.2665C19.6312 19.3642 19.5127 19.4195 19.3586 19.4322ZM25.7819 14.5453L24.3927 18.7372C24.3638 18.8413 24.3119 18.9258 24.237 18.9909C24.167 19.0501 24.0867 19.0835 23.9964 19.0909C23.8529 19.1027 23.7433 19.0716 23.6676 18.9975C23.592 18.9235 23.5493 18.828 23.5397 18.7111C23.5358 18.6632 23.5396 18.6121 23.5512 18.5576L25.1444 13.6264C25.1782 13.5166 25.2352 13.429 25.3154 13.3635C25.401 13.2976 25.4947 13.2659 25.5966 13.2682C25.6922 13.2603 25.7823 13.2823 25.8669 13.3342C25.9563 13.3804 26.0238 13.4525 26.0693 13.5504L28.4149 18.0613C28.4471 18.1282 28.4657 18.1909 28.4705 18.2494C28.4823 18.3929 28.4438 18.5111 28.3551 18.604C28.2718 18.6965 28.1743 18.7474 28.0627 18.7565C27.967 18.7644 27.8769 18.7424 27.7923 18.6905C27.7131 18.6381 27.6481 18.5632 27.5973 18.4657L25.5546 14.6121L25.7819 14.5453ZM24.5599 17.7442L24.923 16.7912L27.0758 16.6142L27.3027 17.5187L24.5599 17.7442ZM32.9557 12.6951C33.0833 12.6846 33.1904 12.7186 33.2772 12.7971C33.3639 12.8756 33.4125 12.9786 33.423 13.1062L33.8052 17.7545C33.8166 17.8927 33.7784 18.0136 33.6906 18.1171C33.6076 18.2149 33.4971 18.2695 33.3589 18.2809C33.2898 18.2866 33.2171 18.2818 33.141 18.2667C33.0697 18.2458 33.0137 18.2156 32.973 18.1761L29.5124 14.4552L29.7092 14.3106L30.0213 18.1058C30.0318 18.2334 29.998 18.3432 29.92 18.4352C29.8472 18.5268 29.7444 18.5781 29.6115 18.589C29.4839 18.5995 29.3768 18.5655 29.2901 18.487C29.2034 18.4085 29.1547 18.3055 29.1443 18.1779L28.762 13.5296C28.7506 13.3914 28.7864 13.2734 28.8694 13.1756C28.9572 13.0721 29.0702 13.0146 29.2084 13.0033C29.2828 12.9972 29.3612 13.0068 29.4435 13.0321C29.5254 13.0521 29.5874 13.0898 29.6294 13.1452L32.9858 16.7704L32.8581 16.8772L32.5539 13.1777C32.5434 13.0501 32.5746 12.9405 32.6473 12.8489C32.72 12.7573 32.8228 12.7061 32.9557 12.6951Z" fill="white"/>
</g>
<defs>
<filter id="filter0_b_1_734" x="-2" y="-2" width="57.1846" height="36.4386" filterUnits="userSpaceOnUse" color-interpolation-filters="sRGB">
<feFlood flood-opacity="0" result="BackgroundImageFix"/>
<feGaussianBlur in="BackgroundImageFix" stdDeviation="1"/>
<feComposite in2="SourceAlpha" operator="in" result="effect1_backgroundBlur_1_734"/>
<feBlend mode="normal" in="SourceGraphic" in2="effect1_backgroundBlur_1_734" result="shape"/>
</filter>
<clipPath id="clip0_1_734">
<rect width="51.0327" height="28.3515" fill="white" transform="translate(0 4.18243) rotate(-4.70101)"/>
</clipPath>
</defs>
</svg>
