<svg width="35" height="35" viewBox="0 0 35 35" fill="none" xmlns="http://www.w3.org/2000/svg">
<rect width="35" height="35" rx="12" fill="url(#paint0_linear_3_1379)"/>
<path d="M16.3333 5.83333C22.1293 5.83333 26.8333 10.5373 26.8333 16.3333C26.8333 22.1293 22.1293 26.8333 16.3333 26.8333C10.5373 26.8333 5.83334 22.1293 5.83334 16.3333C5.83334 10.5373 10.5373 5.83333 16.3333 5.83333ZM16.3333 24.5C20.8454 24.5 24.5 20.8454 24.5 16.3333C24.5 11.8212 20.8454 8.16667 16.3333 8.16667C11.8213 8.16667 8.16668 11.8212 8.16668 16.3333C8.16668 20.8454 11.8213 24.5 16.3333 24.5ZM26.2329 24.5829L29.5327 27.8827L27.8828 29.5326L24.583 26.2328L26.2329 24.5829Z" fill="#FFDEEB"/>
<defs>
<linearGradient id="paint0_linear_3_1379" x1="-7.93546e-07" y1="17.973" x2="34.4641" y2="13.6753" gradientUnits="userSpaceOnUse">
<stop stop-color="#FF5F08"/>
<stop offset="1" stop-color="#FF5FF9"/>
</linearGradient>
</defs>
</svg>
